<svg width="21" height="17" viewBox="0 0 21 17" fill="none" xmlns="http://www.w3.org/2000/svg">
<path d="M0.083252 1.74437C0.083252 1.12562 0.547835 0.625 1.11971 0.625H9.46346C9.73835 0.625 10.002 0.742934 10.1963 0.952857C10.3907 1.16278 10.4999 1.4475 10.4999 1.74437C10.4999 2.04125 10.3907 2.32597 10.1963 2.53589C10.002 2.74582 9.73835 2.86375 9.46346 2.86375H1.11971C0.844824 2.86375 0.581197 2.74582 0.386824 2.53589C0.19245 2.32597 0.083252 2.04125 0.083252 1.74437Z" fill="black"/>
<path d="M0.083252 8.49999C0.083252 7.88124 0.547835 7.38062 1.11971 7.38062H19.8801C20.155 7.38062 20.4186 7.49855 20.613 7.70847C20.8074 7.9184 20.9166 8.20311 20.9166 8.49999C20.9166 8.79687 20.8074 9.08158 20.613 9.29151C20.4186 9.50143 20.155 9.61936 19.8801 9.61936H1.11971C0.844824 9.61936 0.581197 9.50143 0.386824 9.29151C0.19245 9.08158 0.083252 8.79687 0.083252 8.49999Z" fill="black"/>
<path d="M1.11971 14.1362C0.844824 14.1362 0.581197 14.2542 0.386824 14.4641C0.19245 14.674 0.083252 14.9587 0.083252 15.2556C0.083252 15.5525 0.19245 15.8372 0.386824 16.0471C0.581197 16.257 0.844824 16.375 1.11971 16.375H13.6301C13.905 16.375 14.1686 16.257 14.363 16.0471C14.5574 15.8372 14.6666 15.5525 14.6666 15.2556C14.6666 14.9587 14.5574 14.674 14.363 14.4641C14.1686 14.2542 13.905 14.1362 13.6301 14.1362H1.11971Z" fill="black"/>
</svg>
